# xmcd
#
# Track frame offsets: 
#        150
#        11649
#        22679
#        34441
#        50098
#        60143
#        74312
#        86777
#        99979
#        113669
#        128624
#        139483
#        150816
#        163596
#        176198
#        191646
#        204774
#        217209
#        229686
#        243097
#        256424
#
# Disc length: 3601 seconds
#
# Revision: 0
# Processed by: cddbd v1.5.2PL0 Copyright (c) Steve Scherf et al.
# Submitted via: ExactAudioCopyFreeDBPlugin 1.0
#
DISCID=170e0f15
DTITLE=Various Artist - Blues
DYEAR=1900
DGENRE=Blues
TTITLE0=Elmore James - Look on yonder wall
TTITLE1=Howlin' Wolf - Wang dang doodle
TTITLE2=Little Milton - So Mean To Me
TTITLE3=B.B. King - My own fault
TTITLE4=John Lee Hooker - Dimples
TTITLE5=Muddy Waters and Eddie Crawford - Rolling stone
TTITLE6=Memphis Slim - For A Day
TTITLE7=Amos Milburn - One Scotch, One Bourbon, One Beer
TTITLE8=Jimmy McCracklin - Beer drinkin' woman
TTITLE9=Eddie Boyd - Third degree
TTITLE10=Big Joe Turner - Trouble in mind
TTITLE11=J. B. Lenoir - Mama talk to your daughter
TTITLE12=Jimmy Rogers - Walkin' By Myself
TTITLE13=Josh White - T.B. Blues
TTITLE14=Louis Jordan - Early In The Morning
TTITLE15=Robert Nighthawk - Six Three O
TTITLE16=Leadbelly (Huddy Ledbetter) - Salty dog
TTITLE17=Pee Wee Crayton - Central avenue blues
TTITLE18=T-Bone Walker - I'm Still In Love With You
TTITLE19=Sleepy John Estes - Special agent
TTITLE20=Robert Johnson - Sweet Home Chicago
EXTD=
EXTT0=
EXTT1=
EXTT2=
EXTT3=
EXTT4=
EXTT5=
EXTT6=
EXTT7=
EXTT8=
EXTT9=
EXTT10=
EXTT11=
EXTT12=
EXTT13=
EXTT14=
EXTT15=
EXTT16=
EXTT17=
EXTT18=
EXTT19=
EXTT20=
PLAYORDER=
